<svg xmlns="http://www.w3.org/2000/svg" width="91" height="26" fill="none" viewBox="0 0 91 26">
  <path fill="#FFB572" fill-opacity=".2" d="M0 13C0 5.82 5.82 0 13 0h65c7.18 0 13 5.82 13 13s-5.82 13-13 13H13C5.82 26 0 20.18 0 13z"/>
  <path fill="#FFB572" d="M25.33 19c-.085 0-.14-.037-.169-.112l-.504-1.638c-.009-.028-.028-.042-.056-.042h-3.934c-.028 0-.046.014-.056.042l-.504 1.638c-.028.075-.084.112-.168.112h-1.134c-.102 0-.14-.051-.112-.154l3.066-9.534c.028-.075.084-.112.168-.112h1.4c.084 0 .14.037.168.112l3.094 9.534.014.056c0 .065-.042.098-.126.098H25.33zm-4.369-2.926a.06.06 0 000 .056c.02.01.038.014.056.014h3.22c.02 0 .033-.005.042-.014.02-.019.024-.037.014-.056L22.67 10.88c-.009-.019-.023-.028-.042-.028-.018 0-.032.01-.042.028l-1.624 5.194zM29.386 19c-.084 0-.14-.037-.168-.112l-2.282-6.86-.014-.056c0-.065.042-.098.126-.098h1.176c.084 0 .14.037.168.112l1.54 5.068c.01.019.024.028.042.028.019 0 .033-.01.042-.028l1.526-5.068c.028-.075.084-.112.168-.112l1.176.014c.103 0 .14.051.112.154l-2.268 6.846c-.028.075-.084.112-.168.112h-1.176zm6.877 0c-.084 0-.14-.037-.168-.112l-2.282-6.86-.014-.056c0-.065.042-.098.126-.098h1.176c.084 0 .14.037.168.112l1.54 5.068c.01.019.024.028.042.028.019 0 .033-.01.042-.028l1.526-5.068c.028-.075.084-.112.168-.112l1.176.014c.103 0 .14.051.112.154l-2.268 6.846c-.028.075-.084.112-.168.112h-1.176zm10.455-4.452c.037.383.051.812.042 1.288 0 .093-.047.14-.14.14h-4.466c-.038 0-.056.019-.056.056 0 .317.028.56.084.728.102.373.308.667.616.882.317.205.714.308 1.19.308.69 0 1.222-.285 1.596-.854.046-.093.107-.107.182-.042l.798.532c.065.056.08.117.042.182-.262.42-.635.751-1.12.994-.476.243-1.018.364-1.624.364-.682 0-1.256-.15-1.722-.448-.467-.299-.817-.723-1.05-1.274-.224-.55-.336-1.218-.336-2.002 0-.681.051-1.2.154-1.554.168-.644.504-1.153 1.008-1.526s1.115-.56 1.834-.56c.942 0 1.647.238 2.114.714.466.467.751 1.157.854 2.072zm-2.968-1.624c-.402 0-.733.103-.994.308a1.45 1.45 0 00-.532.798 3.276 3.276 0 00-.126.784c0 .037.018.056.056.056h3.206c.037 0 .056-.019.056-.056a4.084 4.084 0 00-.084-.686 1.54 1.54 0 00-.56-.868c-.27-.224-.612-.336-1.022-.336zm7.884-1.148c.765 0 1.372.224 1.82.672.448.439.672 1.036.672 1.792v4.62c0 .093-.047.14-.14.14h-1.064c-.094 0-.14-.047-.14-.14v-4.354c0-.467-.136-.845-.406-1.134-.271-.29-.63-.434-1.078-.434-.44 0-.798.145-1.078.434-.28.29-.42.663-.42 1.12v4.368c0 .093-.047.14-.14.14h-1.064c-.094 0-.14-.047-.14-.14v-6.846c0-.093.046-.14.14-.14h1.064c.093 0 .14.047.14.14v.504c0 .019.004.033.014.042.018.01.032.005.042-.014.4-.513.994-.77 1.778-.77zm7.923 1.064c0 .093-.046.14-.14.14h-1.511c-.038 0-.056.019-.056.056v3.71c0 .392.088.677.265.854.178.168.453.252.826.252h.406c.094 0 .14.047.14.14v.868c0 .093-.046.14-.14.14-.298.019-.513.028-.644.028-.709 0-1.245-.126-1.61-.378-.354-.261-.532-.737-.532-1.428v-4.186c0-.037-.018-.056-.056-.056h-.854c-.093 0-.14-.047-.14-.14v-.826c0-.093.047-.14.14-.14h.854c.038 0 .056-.019.056-.056v-1.652c0-.093.047-.14.14-.14h1.008c.094 0 .14.047.14.14v1.652c0 .037.02.056.057.056h1.511c.094 0 .14.047.14.14v.826zm7.258 1.708c.038.383.052.812.042 1.288 0 .093-.046.14-.14.14h-4.466c-.037 0-.056.019-.056.056 0 .317.028.56.084.728.103.373.308.667.616.882.318.205.714.308 1.19.308.691 0 1.223-.285 1.596-.854.047-.093.108-.107.182-.042l.798.532c.066.056.08.117.042.182a2.71 2.71 0 01-1.12.994c-.476.243-1.017.364-1.624.364-.681 0-1.255-.15-1.722-.448-.466-.299-.816-.723-1.05-1.274-.224-.55-.336-1.218-.336-2.002 0-.681.052-1.2.154-1.554.168-.644.504-1.153 1.008-1.526s1.116-.56 1.834-.56c.943 0 1.648.238 2.114.714.467.467.752 1.157.854 2.072zm-2.968-1.624c-.401 0-.732.103-.994.308a1.45 1.45 0 00-.532.798 3.266 3.266 0 00-.126.784c0 .037.019.056.056.056h3.206c.038 0 .056-.019.056-.056a4.105 4.105 0 00-.084-.686 1.54 1.54 0 00-.56-.868c-.27-.224-.611-.336-1.022-.336zm7.828-1.12c.299 0 .57.06.812.182.066.028.089.084.07.168l-.224 1.05c-.01.084-.065.112-.168.084a1.465 1.465 0 00-.56-.098l-.196.014a1.582 1.582 0 00-1.092.462c-.28.28-.42.649-.42 1.106v4.088c0 .093-.046.14-.14.14h-1.064c-.093 0-.14-.047-.14-.14v-6.846c0-.093.047-.14.14-.14h1.064c.094 0 .14.047.14.14v.742c0 .028.005.047.014.056.019 0 .033-.01.042-.028.42-.653.994-.98 1.722-.98z"/>
</svg>
