<svg xmlns="http://www.w3.org/2000/svg" width="38" height="38" fill="none" viewBox="0 0 38 38">
  <rect width="38" height="38" fill="#252836" rx="8"/>
  <path fill="#65B0F6" d="M16.591 21.456l.32.002c4.645.04 7.272.978 7.272 3.54 0 2.508-2.518 3.476-6.96 3.557l-.631.005C11.747 28.56 9 27.64 9 25.018c0-2.624 2.758-3.562 7.591-3.562zm0 1.5c-4.017 0-6.09.705-6.09 2.062 0 1.349 2.068 2.042 6.09 2.042 4.018 0 6.092-.705 6.092-2.062 0-1.348-2.07-2.042-6.091-2.042zm7.996-2.208c.58.04 1.158.123 1.713.246 1.188.236 2.071.677 2.476 1.526.299.63.299 1.36 0 1.99-.403.846-1.277 1.284-2.472 1.53a.75.75 0 01-.302-1.47c.769-.157 1.28-.414 1.419-.705a.818.818 0 000-.7c-.139-.292-.653-.549-1.43-.703-.497-.11-1-.183-1.506-.217a.75.75 0 11.102-1.497zM16.592 9.5a5.12 5.12 0 015.135 5.134 5.12 5.12 0 01-5.136 5.135 5.119 5.119 0 01-5.134-5.135A5.118 5.118 0 0116.591 9.5zm6.428 1.07a4.047 4.047 0 010 8.093.75.75 0 010-1.5 2.547 2.547 0 100-5.094.75.75 0 010-1.5zm-6.428.43a3.618 3.618 0 00-3.634 3.634 3.619 3.619 0 003.633 3.635 3.62 3.62 0 003.636-3.635A3.62 3.62 0 0016.59 11z"/>
</svg>
