<svg xmlns="http://www.w3.org/2000/svg" width="63" height="26" fill="none" viewBox="0 0 63 26">
  <path fill="#6BE2BE" fill-opacity=".24" d="M0 13C0 5.82 5.82 0 13 0h37c7.18 0 13 5.82 13 13s-5.82 13-13 13H13C5.82 26 0 20.18 0 13z"/>
  <path fill="#50D1AA" d="M19.644 10.222c0 .093-.047.14-.14.14h-4.956c-.037 0-.056.019-.056.056v3.01c0 .037.019.056.056.056h3.402c.093 0 .14.047.14.14v.882c0 .093-.047.14-.14.14h-3.402c-.037 0-.056.019-.056.056v4.158c0 .093-.047.14-.14.14h-1.064c-.093 0-.14-.047-.14-.14V9.34c0-.093.047-.14.14-.14h6.216c.093 0 .14.047.14.14v.882zm6.364 4.326c.037.383.051.812.042 1.288 0 .093-.047.14-.14.14h-4.466c-.038 0-.056.019-.056.056 0 .317.028.56.084.728.102.373.308.667.616.882.317.205.714.308 1.19.308.69 0 1.222-.285 1.596-.854.046-.093.107-.107.182-.042l.798.532c.065.056.08.117.042.182a2.71 2.71 0 01-1.12.994c-.476.243-1.018.364-1.624.364-.682 0-1.256-.15-1.722-.448-.467-.299-.817-.723-1.05-1.274-.224-.55-.336-1.218-.336-2.002 0-.681.051-1.2.154-1.554.168-.644.504-1.153 1.008-1.526s1.115-.56 1.834-.56c.942 0 1.647.238 2.114.714.466.467.751 1.157.854 2.072zm-2.968-1.624c-.402 0-.733.103-.994.308a1.45 1.45 0 00-.532.798 3.266 3.266 0 00-.126.784c0 .037.018.056.056.056h3.206c.037 0 .056-.019.056-.056a4.105 4.105 0 00-.084-.686 1.54 1.54 0 00-.56-.868c-.27-.224-.612-.336-1.022-.336zm7.828-1.12c.298 0 .569.06.812.182.065.028.088.084.07.168l-.224 1.05c-.01.084-.066.112-.168.084a1.465 1.465 0 00-.56-.098l-.196.014a1.582 1.582 0 00-1.092.462c-.28.28-.42.649-.42 1.106v4.088c0 .093-.047.14-.14.14h-1.064c-.094 0-.14-.047-.14-.14v-6.846c0-.093.046-.14.14-.14h1.064c.093 0 .14.047.14.14v.742c0 .028.004.047.014.056.018 0 .032-.01.042-.028.42-.653.994-.98 1.722-.98zm6.388-2.464c0-.093.046-.14.14-.14h1.064c.093 0 .14.047.14.14v9.52c0 .093-.047.14-.14.14h-1.064c-.094 0-.14-.047-.14-.14v-.462c0-.019-.01-.033-.028-.042-.01-.01-.024-.005-.042.014a2.2 2.2 0 01-.728.546c-.28.13-.584.196-.91.196-.672 0-1.232-.163-1.68-.49-.44-.336-.761-.807-.966-1.414-.178-.495-.266-1.092-.266-1.792 0-.653.074-1.218.224-1.694.196-.616.518-1.097.966-1.442.448-.345 1.022-.518 1.722-.518.317 0 .616.065.896.196.289.121.536.299.742.532.018.019.032.023.042.014.018-.01.028-.023.028-.042V9.34zm-.35 7.854c.214-.392.322-.98.322-1.764s-.117-1.381-.35-1.792c-.271-.476-.668-.714-1.19-.714-.56 0-.976.224-1.246.672-.3.467-.448 1.083-.448 1.848 0 .719.116 1.297.35 1.736.27.513.714.77 1.33.77.54 0 .952-.252 1.232-.756zm4.476-6.44a.872.872 0 01-.644-.252.872.872 0 01-.252-.644c0-.261.084-.476.252-.644a.872.872 0 01.644-.252c.261 0 .476.084.644.252a.872.872 0 01.252.644.872.872 0 01-.252.644.872.872 0 01-.644.252zm-.56 8.232c-.094 0-.14-.047-.14-.14v-6.832c0-.093.046-.14.14-.14h1.064c.093 0 .14.047.14.14v6.832c0 .093-.047.14-.14.14h-1.064zm7.698-6.972c0-.093.047-.14.14-.14h1.064c.094 0 .14.047.14.14v6.622c0 1.13-.322 1.937-.966 2.422-.635.485-1.489.728-2.562.728-.15 0-.383-.01-.7-.028-.093-.01-.14-.06-.14-.154l.042-.966c0-.037.014-.07.042-.098.028-.028.066-.037.112-.028.13.01.322.014.574.014.794 0 1.367-.15 1.722-.448.355-.29.532-.784.532-1.484v-.252c0-.019-.01-.033-.028-.042-.01-.01-.023-.005-.042.014-.392.457-.966.686-1.722.686a2.996 2.996 0 01-1.652-.476c-.485-.317-.821-.784-1.008-1.4-.121-.41-.182-.98-.182-1.708 0-.775.07-1.372.21-1.792.178-.56.49-1.008.938-1.344.458-.345.994-.518 1.61-.518.766 0 1.367.233 1.806.7.019.019.033.028.042.028.019-.01.028-.023.028-.042v-.434zm-.084 4.704a3.69 3.69 0 00.056-.476c.019-.168.028-.448.028-.84 0-.392-.01-.667-.028-.826a2.54 2.54 0 00-.07-.476 1.45 1.45 0 00-.504-.84c-.261-.224-.588-.336-.98-.336s-.719.112-.98.336a1.764 1.764 0 00-.56.84c-.103.28-.154.714-.154 1.302 0 .644.047 1.083.14 1.316.093.345.276.63.546.854.28.215.616.322 1.008.322.41 0 .742-.107.994-.322.261-.224.43-.509.504-.854z"/>
</svg>
