<svg xmlns="http://www.w3.org/2000/svg" width="38" height="38" fill="none" viewBox="0 0 38 38">
  <rect width="38" height="38" fill="#252836" rx="8"/>
  <circle cx="19" cy="19" r="9" stroke="#9288E0" stroke-width="1.8"/>
  <path fill="#9288E0" d="M17.459 16.941c0-.594.457-.966 1.077-1.038V18a1.506 1.506 0 01-.183-.052c-.594-.196-.894-.536-.894-1.006zm3.264 4.074c0 .64-.49 1.064-1.181 1.123v-2.253c.045.014.091.027.13.033.731.203 1.051.562 1.051 1.097zm-1.168 3.362l-.007-.829c1.789-.17 2.925-1.155 2.925-2.71 0-1.58-1.064-2.245-2.376-2.526l-.555-.117v-2.279c.692.111 1.077.633 1.096 1.156h1.672c-.026-1.358-1.09-2.39-2.742-2.566v-.849H18.51v.842c-1.58.144-2.82 1.012-2.82 2.58 0 1.481 1.07 2.238 2.285 2.506l.561.124v2.429c-.835-.111-1.273-.614-1.306-1.214h-1.71c.013 1.207.823 2.48 2.984 2.637l-.007.816h1.058z"/>
</svg>
