<svg xmlns="http://www.w3.org/2000/svg" width="38" height="38" fill="none" viewBox="0 0 38 38">
  <rect width="38" height="38" fill="#252836" rx="8"/>
  <path fill="#FFB572" d="M21.986 9C25.048 9 27 10.435 27 13.258V27.33c0 .443-.172.867-.477 1.18-.305.313-.72.489-1.162.489a1.705 1.705 0 01-.775-.203l-5.612-3.134-5.59 3.14c-.673.36-1.489.194-2-.405l-.098-.126-.093-.155a1.778 1.778 0 01-.193-.786V13.434C11 10.5 12.91 9 16.014 9h5.972zm0 1.448h-5.972c-2.395 0-3.602.948-3.602 2.986V27.32c0 .044.011.088 0 .07l.037.063c.065.09.186.12.27.074l5.588-3.138c.416-.23.918-.23 1.337.001l5.602 3.128c.043.023.09.035.126.035a.213.213 0 00.153-.064.224.224 0 00.063-.157V13.258c0-1.9-1.238-2.81-3.602-2.81zm.422 4.869c.39 0 .706.324.706.724 0 .366-.266.669-.61.717l-.096.006H15.54a.715.715 0 01-.706-.723c0-.367.266-.67.61-.718l.096-.006h6.868z"/>
</svg>
