<svg xmlns="http://www.w3.org/2000/svg" width="91" height="26" fill="none" viewBox="0 0 91 26">
  <path fill="#9290FE" fill-opacity=".2" d="M0 13C0 5.82 5.82 0 13 0h65c7.18 0 13 5.82 13 13s-5.82 13-13 13H13C5.82 26 0 20.18 0 13z"/>
  <path fill="#9290FE" d="M21.398 9.2c.094 0 .14.047.14.14v.896c0 .093-.046.14-.14.14H18.71c-.037 0-.056.019-.056.056v8.428c0 .093-.046.14-.14.14h-1.063c-.094 0-.14-.047-.14-.14v-8.428c0-.037-.02-.056-.056-.056h-2.562c-.094 0-.14-.047-.14-.14V9.34c0-.093.046-.14.14-.14h6.705zm2.303 1.554a.872.872 0 01-.644-.252.872.872 0 01-.252-.644c0-.261.084-.476.252-.644a.872.872 0 01.644-.252c.261 0 .476.084.644.252a.872.872 0 01.252.644.872.872 0 01-.252.644.872.872 0 01-.644.252zm-.56 8.232c-.093 0-.14-.047-.14-.14v-6.832c0-.093.047-.14.14-.14h1.064c.094 0 .14.047.14.14v6.832c0 .093-.046.14-.14.14h-1.064zm3.457.014c-.094 0-.14-.047-.14-.14V9.34c0-.093.046-.14.14-.14h1.064c.093 0 .14.047.14.14v9.52c0 .093-.047.14-.14.14h-1.064zm8.922-5.278c.15.476.224 1.04.224 1.694 0 .7-.088 1.297-.266 1.792-.205.607-.532 1.078-.98 1.414-.438.327-.994.49-1.666.49-.327 0-.63-.065-.91-.196a2.2 2.2 0 01-.728-.546c-.018-.019-.037-.023-.056-.014-.01.01-.014.023-.014.042v.462c0 .093-.046.14-.14.14H29.92c-.093 0-.14-.047-.14-.14V9.34c0-.093.047-.14.14-.14h1.064c.093 0 .14.047.14.14v3.122c0 .019.005.033.014.042.019.01.037.005.056-.014a2.04 2.04 0 01.728-.532c.29-.13.593-.196.91-.196.7 0 1.274.173 1.722.518.448.345.77.826.966 1.442zm-1.484 3.458c.233-.439.35-1.017.35-1.736 0-.765-.15-1.381-.448-1.848-.27-.448-.686-.672-1.246-.672-.523 0-.92.238-1.19.714-.242.43-.364 1.027-.364 1.792 0 .765.112 1.353.336 1.764.28.504.69.756 1.232.756.616 0 1.06-.257 1.33-.77zm9.154-2.632c.038.383.052.812.042 1.288 0 .093-.046.14-.14.14h-4.466c-.037 0-.056.019-.056.056 0 .317.028.56.084.728.103.373.308.667.616.882.318.205.714.308 1.19.308.691 0 1.223-.285 1.596-.854.047-.093.108-.107.182-.042l.798.532c.066.056.08.117.042.182a2.71 2.71 0 01-1.12.994c-.476.243-1.017.364-1.624.364-.681 0-1.255-.15-1.722-.448-.466-.299-.816-.723-1.05-1.274-.224-.55-.336-1.218-.336-2.002 0-.681.052-1.2.154-1.554.168-.644.504-1.153 1.008-1.526s1.116-.56 1.834-.56c.943 0 1.648.238 2.114.714.467.467.752 1.157.854 2.072zm-2.968-1.624c-.401 0-.732.103-.994.308a1.45 1.45 0 00-.532.798 3.266 3.266 0 00-.126.784c0 .037.019.056.056.056h3.206c.038 0 .056-.019.056-.056a4.105 4.105 0 00-.084-.686 1.54 1.54 0 00-.56-.868c-.27-.224-.611-.336-1.022-.336zm7.828-1.12c.299 0 .57.06.812.182.066.028.089.084.07.168l-.224 1.05c-.01.084-.065.112-.168.084a1.465 1.465 0 00-.56-.098l-.196.014a1.582 1.582 0 00-1.092.462c-.28.28-.42.649-.42 1.106v4.088c0 .093-.046.14-.14.14h-1.064c-.093 0-.14-.047-.14-.14v-6.846c0-.093.047-.14.14-.14h1.064c.094 0 .14.047.14.14v.742c0 .028.005.047.014.056.019 0 .033-.01.042-.028.42-.653.994-.98 1.722-.98zm7.732 2.744c.038.383.052.812.042 1.288 0 .093-.046.14-.14.14h-4.466c-.037 0-.056.019-.056.056 0 .317.028.56.084.728.103.373.308.667.616.882.317.205.714.308 1.19.308.69 0 1.223-.285 1.596-.854.047-.093.107-.107.182-.042l.798.532c.066.056.08.117.042.182a2.71 2.71 0 01-1.12.994c-.476.243-1.017.364-1.624.364-.681 0-1.255-.15-1.722-.448-.467-.299-.816-.723-1.05-1.274-.224-.55-.336-1.218-.336-2.002 0-.681.052-1.2.154-1.554.168-.644.504-1.153 1.008-1.526s1.116-.56 1.834-.56c.943 0 1.648.238 2.114.714.467.467.752 1.157.854 2.072zm-2.968-1.624c-.401 0-.733.103-.994.308a1.45 1.45 0 00-.532.798 3.266 3.266 0 00-.126.784c0 .037.019.056.056.056h3.206c.038 0 .056-.019.056-.056a4.105 4.105 0 00-.084-.686 1.54 1.54 0 00-.56-.868c-.27-.224-.611-.336-1.022-.336zm9.13-3.584c0-.093.047-.14.14-.14h1.064c.093 0 .14.047.14.14v9.52c0 .093-.047.14-.14.14h-1.064c-.093 0-.14-.047-.14-.14v-.462c0-.019-.01-.033-.028-.042-.01-.01-.023-.005-.042.014a2.199 2.199 0 01-.728.546c-.28.13-.583.196-.91.196-.672 0-1.232-.163-1.68-.49-.439-.336-.76-.807-.966-1.414-.177-.495-.266-1.092-.266-1.792 0-.653.075-1.218.224-1.694.196-.616.518-1.097.966-1.442.448-.345 1.022-.518 1.722-.518.317 0 .616.065.896.196.29.121.537.299.742.532.019.019.033.023.042.014.019-.01.028-.023.028-.042V9.34zm-.35 7.854c.215-.392.322-.98.322-1.764s-.117-1.381-.35-1.792c-.27-.476-.667-.714-1.19-.714-.56 0-.975.224-1.246.672-.299.467-.448 1.083-.448 1.848 0 .719.117 1.297.35 1.736.27.513.714.77 1.33.77.541 0 .952-.252 1.232-.756zm9.432-2.646c.038.383.052.812.042 1.288 0 .093-.046.14-.14.14h-4.466c-.037 0-.056.019-.056.056 0 .317.028.56.084.728.103.373.308.667.616.882.318.205.714.308 1.19.308.691 0 1.223-.285 1.596-.854.047-.093.108-.107.182-.042l.798.532c.066.056.08.117.042.182-.261.42-.634.751-1.12.994-.476.243-1.017.364-1.624.364-.681 0-1.255-.15-1.722-.448-.466-.299-.816-.723-1.05-1.274-.224-.55-.336-1.218-.336-2.002 0-.681.052-1.2.154-1.554.168-.644.504-1.153 1.008-1.526s1.116-.56 1.834-.56c.943 0 1.648.238 2.114.714.467.467.752 1.157.854 2.072zm-2.968-1.624c-.401 0-.732.103-.994.308a1.45 1.45 0 00-.532.798 3.276 3.276 0 00-.126.784c0 .037.019.056.056.056h3.206c.038 0 .056-.019.056-.056a4.084 4.084 0 00-.084-.686 1.54 1.54 0 00-.56-.868c-.27-.224-.611-.336-1.022-.336zm7.828-1.12c.299 0 .57.06.812.182.066.028.089.084.07.168l-.224 1.05c-.01.084-.065.112-.168.084a1.466 1.466 0 00-.56-.098l-.196.014a1.581 1.581 0 00-1.092.462c-.28.28-.42.649-.42 1.106v4.088c0 .093-.047.14-.14.14h-1.064c-.093 0-.14-.047-.14-.14v-6.846c0-.093.047-.14.14-.14h1.064c.093 0 .14.047.14.14v.742c0 .028.005.047.014.056.019 0 .033-.01.042-.028.42-.653.994-.98 1.722-.98z"/>
</svg>
